<svg width="160" height="160" viewBox="0 0 160 160" fill="none" xmlns="http://www.w3.org/2000/svg">
<path fill-rule="evenodd" clip-rule="evenodd" d="M8 0C3.58172 0 0 3.58172 0 8V152C0 156.418 3.58172 160 8 160H152C156.418 160 160 156.418 160 152V8C160 3.58172 156.418 0 152 0H8ZM40 77C45.5228 77 50 72.5229 50 67C50 61.4772 45.5228 57 40 57C34.4772 57 30 61.4772 30 67C30 72.5229 34.4772 77 40 77ZM130 67C130 72.5229 125.523 77 120 77C114.477 77 110 72.5229 110 67C110 61.4772 114.477 57 120 57C125.523 57 130 61.4772 130 67ZM79.6482 82.5C69.3212 90.277 61.4277 92.9025 45 95.6483C61.0908 100.06 68.9448 103.789 79.6482 114C91.009 103.673 98.7598 99.8939 114.296 95.6483C98.7922 93.5489 91.0213 90.9515 79.6482 82.5Z" fill="#C4E288"/>
</svg>
