<svg xmlns="http://www.w3.org/2000/svg" width="93" height="92" viewBox="0 0 93 92" fill="none">
  <g clip-path="url(#clip0_904_25411)">
    <path d="M77.5116 0.133789H15.2617C6.83289 0.133789 0 6.8899 0 15.224V76.7745C0 85.1085 6.83289 91.8647 15.2617 91.8647H77.5116C85.9404 91.8647 92.7733 85.1085 92.7733 76.7745V15.224C92.7733 6.8899 85.9404 0.133789 77.5116 0.133789Z" fill="#191919"/>
    <path d="M60.1331 61.6165L32.1958 53.5358C32.1958 53.5358 33.4339 48.4859 36.7439 43.3818L61.2564 50.8554C61.2564 50.8554 62.9189 56.2211 60.1281 61.6165H60.1331Z" fill="url(#paint0_linear_904_25411)"/>
    <path d="M51.5061 31.3819C53.9766 31.3819 55.9793 29.4017 55.9793 26.959C55.9793 24.5163 53.9766 22.5361 51.5061 22.5361C49.0357 22.5361 47.033 24.5163 47.033 26.959C47.033 29.4017 49.0357 31.3819 51.5061 31.3819Z" fill="#191919"/>
    <path d="M67.7759 40.6616C64.4011 36.5546 59.4986 34.6986 54.6709 32.8425C53.5976 32.4328 52.5791 31.8553 51.4608 31.564C51.1413 31.4801 50.8368 31.3814 50.5572 31.2827C50.5572 31.2827 50.5539 31.281 50.5472 31.2777C48.096 30.3695 47.1374 28.7109 47.462 26.4747C47.7765 24.288 50.3925 22.7873 52.7139 23.3599C53.8871 23.6462 54.8257 24.3817 55.3898 25.3394C55.7143 25.8774 55.919 26.4846 55.9739 27.1263V27.1411C55.9939 27.3682 55.9989 27.6051 55.9789 27.8421L66.5678 25.7836C66.5528 25.6306 66.5328 25.4727 66.5079 25.3196C65.6791 19.6133 61.4556 14.6918 55.4497 13.206C47.5219 11.2463 38.5705 13.67 36.0144 22.5405C34.4568 27.9556 35.0459 37.379 47.1025 41.6242C53.0334 43.7171 59.6034 46.669 61.2609 50.855C61.2609 50.855 62.9233 56.2207 60.1326 61.6161C57.6464 66.4487 50.3376 69.2723 42.869 67.4853C35.8497 65.8021 30.4979 60.7769 32.1953 53.5354C32.2502 53.3231 33.5033 48.377 36.7433 43.3815L24.7167 39.7188C9.92429 63.1414 27.5174 78.1378 42.9189 79.3126C51.995 80.0037 62.2494 77.8268 68.2302 70.5014C75.1097 62.0752 74.6005 48.9743 67.7759 40.6616Z" fill="white"/>
    <path d="M70.4626 25.3154H55.3906V29.1756H70.4626V25.3154Z" fill="white"/>
    <path d="M60.1331 61.6158C57.6469 66.4485 50.3381 69.272 42.8695 67.4851C35.8502 65.8018 30.4984 60.7767 32.1958 53.5352L60.1331 61.6158Z" fill="#191919"/>
  </g>
  <defs>
    <linearGradient id="paint0_linear_904_25411" x1="33.9681" y1="47.6369" x2="61.3937" y2="57.6582" gradientUnits="userSpaceOnUse">
      <stop offset="0.17" stop-color="white"/>
      <stop offset="0.37" stop-color="white" stop-opacity="0.9801"/>
      <stop offset="0.48" stop-color="white" stop-opacity="0.9216"/>
      <stop offset="0.57" stop-color="white" stop-opacity="0.81"/>
      <stop offset="0.65" stop-color="white" stop-opacity="0.6889"/>
      <stop offset="0.73" stop-color="white" stop-opacity="0.5329"/>
      <stop offset="0.8" stop-color="white" stop-opacity="0.36"/>
      <stop offset="0.86" stop-color="white" stop-opacity="0.2025"/>
      <stop offset="0.92" stop-color="white" stop-opacity="0.0784"/>
      <stop offset="0.97" stop-color="white" stop-opacity="0.01"/>
      <stop offset="1" stop-color="white" stop-opacity="0"/>
    </linearGradient>
    <clipPath id="clip0_904_25411">
      <rect width="92.7733" height="91.7309" fill="white" transform="translate(0 0.134766)"/>
    </clipPath>
  </defs>
</svg>