<svg width="540" height="120" viewBox="0 0 540 120" fill="none" xmlns="http://www.w3.org/2000/svg">
<rect width="540" height="120" fill="#5A1771"/>
<g clip-path="url(#clip0_904_25410)">
<path d="M87.5116 14.1338H25.2617C16.8329 14.1338 10 20.8899 10 29.224V90.7745C10 99.1085 16.8329 105.865 25.2617 105.865H87.5116C95.9404 105.865 102.773 99.1085 102.773 90.7745V29.224C102.773 20.8899 95.9404 14.1338 87.5116 14.1338Z" fill="#191919"/>
<path d="M70.1331 75.6165L42.1958 67.5358C42.1958 67.5358 43.4339 62.4859 46.7439 57.3818L71.2564 64.8554C71.2564 64.8554 72.9189 70.2211 70.1281 75.6165H70.1331Z" fill="url(#paint0_linear_904_25410)"/>
<path d="M61.5061 45.3819C63.9766 45.3819 65.9793 43.4017 65.9793 40.959C65.9793 38.5163 63.9766 36.5361 61.5061 36.5361C59.0357 36.5361 57.033 38.5163 57.033 40.959C57.033 43.4017 59.0357 45.3819 61.5061 45.3819Z" fill="#191919"/>
<path d="M77.7759 54.6616C74.4011 50.5546 69.4986 48.6986 64.6709 46.8425C63.5976 46.4328 62.5791 45.8553 61.4608 45.564C61.1413 45.4801 60.8368 45.3814 60.5572 45.2827C60.5572 45.2827 60.5539 45.281 60.5472 45.2777C58.096 44.3695 57.1374 42.7109 57.462 40.4747C57.7765 38.288 60.3925 36.7873 62.7139 37.3599C63.8871 37.6462 64.8257 38.3817 65.3898 39.3394C65.7143 39.8774 65.919 40.4846 65.9739 41.1263V41.1411C65.9939 41.3682 65.9989 41.6051 65.9789 41.8421L76.5678 39.7836C76.5528 39.6306 76.5328 39.4727 76.5079 39.3196C75.6791 33.6133 71.4556 28.6918 65.4497 27.206C57.5219 25.2463 48.5705 27.67 46.0144 36.5405C44.4568 41.9556 45.0459 51.379 57.1025 55.6242C63.0334 57.7171 69.6034 60.669 71.2609 64.855C71.2609 64.855 72.9233 70.2207 70.1326 75.6161C67.6464 80.4487 60.3376 83.2723 52.869 81.4853C45.8497 79.8021 40.4979 74.7769 42.1953 67.5354C42.2502 67.3231 43.5033 62.377 46.7433 57.3815L34.7167 53.7188C19.9243 77.1414 37.5174 92.1378 52.9189 93.3126C61.995 94.0037 72.2494 91.8268 78.2302 84.5014C85.1097 76.0752 84.6005 62.9743 77.7759 54.6616Z" fill="white"/>
<path d="M80.4626 39.3154H65.3906V43.1756H80.4626V39.3154Z" fill="white"/>
<path d="M70.1331 75.6158C67.6469 80.4485 60.3381 83.272 52.8695 81.4851C45.8502 79.8018 40.4984 74.7767 42.1958 67.5352L70.1331 75.6158Z" fill="#191919"/>
</g>
<path d="M492.36 57.2648L512.241 84.6173H503.435L487.49 62.7353L481.419 69.4066V84.6173H474.348V35.4495H481.419V58.8659L502.367 35.3828H511.841L492.36 57.2648Z" fill="white"/>
<path d="M449.854 85.1505C445.14 85.1505 440.937 84.0831 437.246 81.9483C433.599 79.8134 430.73 76.8336 428.64 73.0087C426.594 69.1838 425.571 64.8474 425.571 59.9996C425.571 55.1073 426.594 50.7709 428.64 46.9905C430.73 43.1656 433.599 40.1857 437.246 38.0509C440.937 35.916 445.14 34.8486 449.854 34.8486C453.146 34.8486 456.259 35.4935 459.194 36.7833C462.13 38.0731 464.732 39.8744 467 42.1871L462.33 46.7903C460.818 45.0113 458.95 43.6103 456.726 42.5874C454.547 41.5644 452.234 41.053 449.788 41.053C446.408 41.053 443.428 41.8535 440.848 43.4547C438.269 45.0113 436.267 47.2351 434.844 50.126C433.421 52.9724 432.709 56.2636 432.709 59.9996C432.709 63.7355 433.421 67.049 434.844 69.9399C436.267 72.7863 438.269 75.0101 440.848 76.6112C443.428 78.1679 446.408 78.9462 449.788 78.9462C452.278 78.9462 454.569 78.4347 456.659 77.4118C458.75 76.3888 460.551 75.0323 462.063 73.3423L467 77.812C462.107 82.7488 456.392 85.195 449.854 85.1505Z" fill="white"/>
<path d="M400.329 85.0843C396.46 85.0843 393.102 84.2392 390.256 82.5492C387.409 80.8591 385.23 78.5241 383.718 75.5443C382.25 72.5199 381.516 69.0508 381.516 65.137V35.3828H388.588V65.137C388.588 69.2732 389.588 72.5422 391.59 74.9438C393.591 77.3455 396.504 78.5464 400.329 78.5464C404.154 78.5464 407.067 77.3455 409.069 74.9438C411.07 72.5422 412.071 69.2732 412.071 65.137V35.3828H419.209V65.137C419.209 69.0508 418.453 72.5199 416.941 75.5443C415.429 78.5241 413.249 80.8591 410.403 82.5492C407.557 84.2392 404.199 85.0843 400.329 85.0843Z" fill="white"/>
<path d="M350.086 78.4129C353.555 78.4129 356.624 77.6569 359.292 76.1447C361.961 74.588 364.029 72.431 365.497 69.6735C366.964 66.8715 367.698 63.647 367.698 60C367.698 56.353 366.964 53.1508 365.497 50.3933C364.029 47.5914 361.961 45.4343 359.292 43.9221C356.624 42.3655 353.555 41.5872 350.086 41.5872L343.081 41.6539V78.3462L350.086 78.4129ZM336.009 35.3828H350.153C354.911 35.3828 359.137 36.428 362.828 38.5183C366.564 40.6087 369.477 43.5218 371.568 47.2578C373.658 50.9937 374.703 55.2412 374.703 60C374.703 64.7589 373.658 69.0064 371.568 72.7423C369.477 76.4783 366.564 79.3914 362.828 81.4818C359.137 83.5721 354.911 84.6173 350.153 84.6173H336.009V35.3828Z" fill="white"/>
<path d="M327.389 41.5872H302.639V56.1974H323.92V62.335H302.639V78.4129H327.389V84.6173H295.567V35.3828H327.389V41.5872Z" fill="white"/>
<path d="M269.782 59.9333C272.495 59.9333 274.674 59.1105 276.32 57.4649C278.01 55.7749 278.855 53.5289 278.855 50.7269C278.855 47.9249 278.01 45.7011 276.32 44.0556C274.674 42.41 272.495 41.5872 269.782 41.5872H259.041V59.9333H269.782ZM251.969 35.3828H270.649C273.629 35.3828 276.275 36.0277 278.588 37.3175C280.901 38.6073 282.702 40.4308 283.992 42.788C285.282 45.1007 285.927 47.7693 285.927 50.7936C285.927 54.0403 285.015 56.9312 283.191 59.4663C281.368 61.957 278.677 63.8472 275.119 65.137L288.262 84.6173H279.722L267.247 66.1377H259.041V84.6173H251.969V35.3828Z" fill="white"/>
<path d="M245.156 84.6173H237.617L232.68 71.2079H212.466L207.329 84.6173H199.791L218.404 35.3828H226.876L245.156 84.6173ZM230.345 65.0703L222.673 44.3224L214.735 65.0703H230.345Z" fill="white"/>
<path d="M193.108 84.6173H185.97V62.4017H162.754V84.6173H155.682V35.3828H162.754V56.2641H185.97V35.3828H193.108V84.6173Z" fill="white"/>
<path d="M118.644 70.607C120.067 73.3645 121.757 75.4548 123.714 76.8781C125.716 78.3013 127.828 79.0129 130.052 79.0129C133.121 79.0129 135.5 78.3235 137.19 76.9448C138.88 75.5216 139.725 73.6313 139.725 71.2741C139.725 69.7175 139.258 68.4055 138.324 67.338C137.435 66.2706 136.301 65.4256 134.922 64.8029C133.588 64.1358 131.72 63.3575 129.318 62.468C126.249 61.3561 123.759 60.2887 121.846 59.2657C119.934 58.2428 118.31 56.7973 116.976 54.9294C115.642 53.0614 114.975 50.6597 114.975 47.7243C114.975 45.1003 115.642 42.8098 116.976 40.8528C118.31 38.8959 120.156 37.406 122.513 36.383C124.871 35.3601 127.561 34.8486 130.586 34.8486C134.01 34.8486 137.079 35.8049 139.792 37.7173C142.55 39.5853 144.595 42.3872 145.93 46.1232L139.592 48.3914C138.747 45.9453 137.546 44.1218 135.989 42.9209C134.433 41.6756 132.676 41.0307 130.719 40.9863C128.095 40.9863 125.982 41.6089 124.381 42.8542C122.825 44.0551 122.046 45.6784 122.046 47.7243C122.046 49.281 122.491 50.593 123.381 51.6604C124.315 52.7278 125.471 53.6173 126.85 54.3289C128.273 54.9961 130.163 55.7744 132.52 56.6639C135.589 57.8647 138.058 58.9766 139.926 59.9996C141.794 61.0225 143.395 62.468 144.729 64.3359C146.063 66.1594 146.73 68.4944 146.73 71.3408C146.73 74.0539 146.063 76.4555 144.729 78.5459C143.395 80.6362 141.46 82.2596 138.925 83.416C136.434 84.5723 133.499 85.1505 130.119 85.1505C126.516 85.1505 123.247 84.1943 120.312 82.2818C117.376 80.3249 114.864 77.523 112.773 73.876L118.644 70.607Z" fill="white"/>
<defs>
<linearGradient id="paint0_linear_904_25410" x1="43.9681" y1="61.6369" x2="71.3937" y2="71.6582" gradientUnits="userSpaceOnUse">
<stop offset="0.17" stop-color="white"/>
<stop offset="0.37" stop-color="white" stop-opacity="0.9801"/>
<stop offset="0.48" stop-color="white" stop-opacity="0.9216"/>
<stop offset="0.57" stop-color="white" stop-opacity="0.81"/>
<stop offset="0.65" stop-color="white" stop-opacity="0.6889"/>
<stop offset="0.73" stop-color="white" stop-opacity="0.5329"/>
<stop offset="0.8" stop-color="white" stop-opacity="0.36"/>
<stop offset="0.86" stop-color="white" stop-opacity="0.2025"/>
<stop offset="0.92" stop-color="white" stop-opacity="0.0784"/>
<stop offset="0.97" stop-color="white" stop-opacity="0.01"/>
<stop offset="1" stop-color="white" stop-opacity="0"/>
</linearGradient>
<clipPath id="clip0_904_25410">
<rect width="92.7733" height="91.7309" fill="white" transform="translate(10 14.1348)"/>
</clipPath>
</defs>
</svg>
