<svg width="64" height="64" viewBox="0 0 64 64" fill="none" xmlns="http://www.w3.org/2000/svg">
<g clip-path="url(#clip0_828_19131)">
<path d="M53.4717 0H10.5283C4.7137 0 0 4.7137 0 10.5283V53.4717C0 59.2863 4.7137 64 10.5283 64H53.4717C59.2863 64 64 59.2863 64 53.4717V10.5283C64 4.7137 59.2863 0 53.4717 0Z" fill="#191919"/>
<path d="M41.4831 42.8951L22.2104 37.2573C22.2104 37.2573 23.0646 33.734 25.3479 30.1729L42.258 35.3872C42.258 35.3872 43.4049 39.1308 41.4797 42.8951H41.4831Z" fill="url(#paint0_linear_828_19131)"/>
<path d="M35.5316 21.8006C37.2359 21.8006 38.6175 20.419 38.6175 18.7147C38.6175 17.0105 37.2359 15.6289 35.5316 15.6289C33.8274 15.6289 32.4458 17.0105 32.4458 18.7147C32.4458 20.419 33.8274 21.8006 35.5316 21.8006Z" fill="#191919"/>
<path d="M46.7556 28.2753C44.4275 25.4099 41.0455 24.1149 37.7151 22.82C36.9746 22.5341 36.2721 22.1312 35.5006 21.928C35.2802 21.8694 35.0701 21.8006 34.8772 21.7317C34.8772 21.7317 34.8749 21.7305 34.8703 21.7282C33.1793 21.0945 32.5181 19.9374 32.7419 18.3772C32.9589 16.8515 34.7636 15.8045 36.365 16.2041C37.1744 16.4038 37.8219 16.917 38.211 17.5851C38.4349 17.9605 38.5761 18.3841 38.614 18.8318V18.8422C38.6278 19.0006 38.6312 19.1659 38.6174 19.3312L45.9222 17.8951C45.9118 17.7883 45.8981 17.6781 45.8808 17.5713C45.3091 13.5901 42.3955 10.1564 38.2524 9.11973C32.7833 7.75246 26.6082 9.44347 24.8448 15.6323C23.7703 19.4104 24.1767 25.985 32.494 28.9469C36.5855 30.4071 41.1178 32.4667 42.2612 35.3872C42.2612 35.3872 43.408 39.1308 41.4828 42.8951C39.7677 46.2668 34.7257 48.2368 29.5735 46.99C24.7312 45.8156 21.0392 42.3096 22.2102 37.2573C22.2481 37.1092 23.1125 33.6583 25.3477 30.173L17.051 27.6175C6.84645 43.9593 18.9831 54.4222 29.6079 55.2419C35.8691 55.724 42.9431 54.2052 47.069 49.0943C51.8149 43.2154 51.4636 34.075 46.7556 28.2753Z" fill="#BE8DCF"/>
<path d="M48.6089 17.5679H38.2114V20.2611H48.6089V17.5679Z" fill="#FFB57F"/>
<path d="M41.4833 42.8951C39.7682 46.2668 34.7262 48.2368 29.5739 46.99C24.7316 45.8156 21.0397 42.3096 22.2106 37.2573L41.4833 42.8951Z" fill="black"/>
</g>
<defs>
<linearGradient id="paint0_linear_828_19131" x1="23.4331" y1="33.1417" x2="42.4027" y2="39.9953" gradientUnits="userSpaceOnUse">
<stop offset="0.17" stop-color="#BE8DCF"/>
<stop offset="0.38" stop-color="#BE8DCF" stop-opacity="0.9801"/>
<stop offset="0.5" stop-color="#BE8DCF" stop-opacity="0.9025"/>
<stop offset="0.6" stop-color="#BE8DCF" stop-opacity="0.7744"/>
<stop offset="0.69" stop-color="#BE8DCF" stop-opacity="0.6241"/>
<stop offset="0.76" stop-color="#BE8DCF" stop-opacity="0.4356"/>
<stop offset="0.84" stop-color="#BE8DCF" stop-opacity="0.2601"/>
<stop offset="0.9" stop-color="#BE8DCF" stop-opacity="0.1089"/>
<stop offset="0.97" stop-color="#BE8DCF" stop-opacity="0.0144"/>
<stop offset="1" stop-color="#BE8DCF" stop-opacity="0"/>
</linearGradient>
<clipPath id="clip0_828_19131">
<rect width="64" height="64" fill="white"/>
</clipPath>
</defs>
</svg>
